<mxfile host="app.diagrams.net" modified="2023-07-31T14:01:10.103Z" agent="Mozilla/5.0 (Macintosh; Intel Mac OS X 10_15_7) AppleWebKit/537.36 (KHTML, like Gecko) Chrome/115.0.0.0 Safari/537.36" etag="5EWZ0hd7_vW9sSaWsafu" version="21.6.6" type="github">
  <diagram id="GSaXNA42wL7wWPPlso_6" name="Page-2">
    <mxGraphModel dx="3198" dy="1304" grid="1" gridSize="10" guides="1" tooltips="1" connect="1" arrows="1" fold="1" page="1" pageScale="1" pageWidth="850" pageHeight="1100" math="0" shadow="0">
      <root>
        <mxCell id="0" />
        <mxCell id="1" parent="0" />
        <mxCell id="DGFGNufy49oRKnyAsM9c-1" style="edgeStyle=orthogonalEdgeStyle;rounded=0;orthogonalLoop=1;jettySize=auto;html=1;" edge="1" parent="1" source="DGFGNufy49oRKnyAsM9c-2" target="DGFGNufy49oRKnyAsM9c-57">
          <mxGeometry relative="1" as="geometry" />
        </mxCell>
        <mxCell id="DGFGNufy49oRKnyAsM9c-2" value="" style="outlineConnect=0;dashed=0;verticalLabelPosition=bottom;verticalAlign=top;align=center;html=1;shape=mxgraph.aws3.mobile_client;fillColor=#D2D3D3;gradientColor=none;" vertex="1" parent="1">
          <mxGeometry x="-240" y="650" width="40.5" height="53" as="geometry" />
        </mxCell>
        <mxCell id="DGFGNufy49oRKnyAsM9c-3" style="edgeStyle=orthogonalEdgeStyle;rounded=0;orthogonalLoop=1;jettySize=auto;html=1;" edge="1" parent="1" source="DGFGNufy49oRKnyAsM9c-4" target="DGFGNufy49oRKnyAsM9c-57">
          <mxGeometry relative="1" as="geometry" />
        </mxCell>
        <mxCell id="DGFGNufy49oRKnyAsM9c-4" value="" style="verticalLabelPosition=bottom;html=1;verticalAlign=top;align=center;strokeColor=none;fillColor=#00BEF2;shape=mxgraph.azure.laptop;pointerEvents=1;" vertex="1" parent="1">
          <mxGeometry x="-260" y="370" width="110" height="70" as="geometry" />
        </mxCell>
        <mxCell id="DGFGNufy49oRKnyAsM9c-5" style="edgeStyle=orthogonalEdgeStyle;rounded=0;orthogonalLoop=1;jettySize=auto;html=1;" edge="1" parent="1" source="DGFGNufy49oRKnyAsM9c-7" target="DGFGNufy49oRKnyAsM9c-57">
          <mxGeometry relative="1" as="geometry" />
        </mxCell>
        <mxCell id="DGFGNufy49oRKnyAsM9c-6" style="edgeStyle=orthogonalEdgeStyle;rounded=0;orthogonalLoop=1;jettySize=auto;html=1;" edge="1" parent="1" source="DGFGNufy49oRKnyAsM9c-7" target="DGFGNufy49oRKnyAsM9c-65">
          <mxGeometry relative="1" as="geometry" />
        </mxCell>
        <mxCell id="DGFGNufy49oRKnyAsM9c-7" value="" style="whiteSpace=wrap;html=1;aspect=fixed;fillColor=#dae8fc;strokeColor=#6c8ebf;" vertex="1" parent="1">
          <mxGeometry x="113" y="120" width="817" height="817" as="geometry" />
        </mxCell>
        <mxCell id="DGFGNufy49oRKnyAsM9c-18" style="edgeStyle=orthogonalEdgeStyle;rounded=0;orthogonalLoop=1;jettySize=auto;html=1;exitX=0.5;exitY=1;exitDx=0;exitDy=0;" edge="1" parent="1">
          <mxGeometry relative="1" as="geometry">
            <mxPoint x="375" y="357.5" as="sourcePoint" />
            <mxPoint x="375" y="357.5" as="targetPoint" />
          </mxGeometry>
        </mxCell>
        <mxCell id="DGFGNufy49oRKnyAsM9c-26" value="" style="strokeWidth=2;html=1;shape=mxgraph.flowchart.annotation_2;align=left;labelPosition=right;pointerEvents=1;direction=east;" vertex="1" parent="1">
          <mxGeometry x="810" y="180" width="40" height="210" as="geometry" />
        </mxCell>
        <mxCell id="DGFGNufy49oRKnyAsM9c-27" value="&lt;a href=&quot;https://drive.google.com/file/d/1oduVAcMbusg9stKOJ1IKLAgPo_JSWriB/view?usp=sharing&quot;&gt;App&amp;nbsp;Flow1&lt;/a&gt;" style="text;html=1;align=center;verticalAlign=middle;resizable=0;points=[];autosize=1;strokeColor=none;fillColor=none;" vertex="1" parent="1">
          <mxGeometry x="850" y="270" width="80" height="30" as="geometry" />
        </mxCell>
        <mxCell id="DGFGNufy49oRKnyAsM9c-28" value="" style="edgeStyle=orthogonalEdgeStyle;rounded=0;orthogonalLoop=1;jettySize=auto;html=1;" edge="1" parent="1" target="DGFGNufy49oRKnyAsM9c-31">
          <mxGeometry relative="1" as="geometry">
            <mxPoint x="180" y="675.04" as="sourcePoint" />
          </mxGeometry>
        </mxCell>
        <mxCell id="DGFGNufy49oRKnyAsM9c-30" value="" style="edgeStyle=orthogonalEdgeStyle;rounded=0;orthogonalLoop=1;jettySize=auto;html=1;" edge="1" parent="1" target="DGFGNufy49oRKnyAsM9c-36">
          <mxGeometry relative="1" as="geometry">
            <mxPoint x="270" y="675.04" as="sourcePoint" />
          </mxGeometry>
        </mxCell>
        <mxCell id="DGFGNufy49oRKnyAsM9c-32" value="" style="edgeStyle=orthogonalEdgeStyle;rounded=0;orthogonalLoop=1;jettySize=auto;html=1;" edge="1" parent="1" target="DGFGNufy49oRKnyAsM9c-37">
          <mxGeometry relative="1" as="geometry">
            <mxPoint x="280" y="735.04" as="sourcePoint" />
          </mxGeometry>
        </mxCell>
        <mxCell id="DGFGNufy49oRKnyAsM9c-35" value="" style="edgeStyle=orthogonalEdgeStyle;rounded=0;orthogonalLoop=1;jettySize=auto;html=1;" edge="1" parent="1" target="DGFGNufy49oRKnyAsM9c-39">
          <mxGeometry relative="1" as="geometry">
            <mxPoint x="350" y="675.04" as="sourcePoint" />
          </mxGeometry>
        </mxCell>
        <mxCell id="DGFGNufy49oRKnyAsM9c-38" value="" style="edgeStyle=orthogonalEdgeStyle;rounded=0;orthogonalLoop=1;jettySize=auto;html=1;" edge="1" parent="1" target="DGFGNufy49oRKnyAsM9c-34">
          <mxGeometry relative="1" as="geometry">
            <mxPoint x="435" y="675.04" as="sourcePoint" />
          </mxGeometry>
        </mxCell>
        <mxCell id="DGFGNufy49oRKnyAsM9c-42" value="" style="edgeStyle=orthogonalEdgeStyle;rounded=0;orthogonalLoop=1;jettySize=auto;html=1;" edge="1" parent="1" target="DGFGNufy49oRKnyAsM9c-43">
          <mxGeometry relative="1" as="geometry">
            <mxPoint x="365" y="735.04" as="sourcePoint" />
            <mxPoint x="490" y="500" as="targetPoint" />
          </mxGeometry>
        </mxCell>
        <mxCell id="DGFGNufy49oRKnyAsM9c-44" value="" style="strokeWidth=2;html=1;shape=mxgraph.flowchart.annotation_2;align=left;labelPosition=right;pointerEvents=1;direction=east;" vertex="1" parent="1">
          <mxGeometry x="577.5" y="720" width="50" height="100" as="geometry" />
        </mxCell>
        <mxCell id="DGFGNufy49oRKnyAsM9c-45" value="&lt;a href=&quot;https://drive.google.com/file/d/1SwpEaq0mFn2--Wu-9AVyrdNbjBa3LrT7/view?usp=sharing&quot;&gt;App&amp;nbsp;Flow2&lt;/a&gt;" style="text;html=1;align=center;verticalAlign=middle;resizable=0;points=[];autosize=1;strokeColor=none;fillColor=none;" vertex="1" parent="1">
          <mxGeometry x="640" y="700" width="80" height="30" as="geometry" />
        </mxCell>
        <mxCell id="DGFGNufy49oRKnyAsM9c-46" value="&lt;a href=&quot;https://drive.google.com/file/d/18g89C6fYF5i-nobvC9cSjK7K8zZfrIjg/view?usp=sharing&quot;&gt;App&amp;nbsp;Flow3&lt;/a&gt;" style="text;html=1;align=center;verticalAlign=middle;resizable=0;points=[];autosize=1;strokeColor=none;fillColor=none;" vertex="1" parent="1">
          <mxGeometry x="637.5" y="730" width="80" height="30" as="geometry" />
        </mxCell>
        <mxCell id="DGFGNufy49oRKnyAsM9c-47" value="&lt;a href=&quot;https://drive.google.com/file/d/1KID6Vsfr6u9EKGHkbgI8x0bwXexHC7Mh/view?usp=sharing&quot;&gt;App&amp;nbsp;Flow&lt;/a&gt;4" style="text;html=1;align=center;verticalAlign=middle;resizable=0;points=[];autosize=1;strokeColor=none;fillColor=none;" vertex="1" parent="1">
          <mxGeometry x="680" y="770" width="80" height="30" as="geometry" />
        </mxCell>
        <mxCell id="DGFGNufy49oRKnyAsM9c-48" value="&lt;a href=&quot;https://drive.google.com/file/d/1O_zXei-ndrTcU6nSI0R-1R8S3YrYnWWK/view?usp=sharing&quot;&gt;Application Submission&amp;nbsp;&lt;/a&gt;" style="rounded=1;whiteSpace=wrap;html=1;" vertex="1" parent="1">
          <mxGeometry x="295" y="480" width="120" height="60" as="geometry" />
        </mxCell>
        <mxCell id="DGFGNufy49oRKnyAsM9c-49" value="" style="edgeStyle=orthogonalEdgeStyle;rounded=0;orthogonalLoop=1;jettySize=auto;html=1;" edge="1" parent="1" source="DGFGNufy49oRKnyAsM9c-51" target="DGFGNufy49oRKnyAsM9c-48">
          <mxGeometry relative="1" as="geometry" />
        </mxCell>
        <mxCell id="DGFGNufy49oRKnyAsM9c-50" value="" style="edgeStyle=orthogonalEdgeStyle;rounded=0;orthogonalLoop=1;jettySize=auto;html=1;" edge="1" parent="1" source="DGFGNufy49oRKnyAsM9c-51" target="DGFGNufy49oRKnyAsM9c-48">
          <mxGeometry relative="1" as="geometry" />
        </mxCell>
        <mxCell id="DGFGNufy49oRKnyAsM9c-51" value="" style="strokeWidth=2;html=1;shape=mxgraph.flowchart.annotation_2;align=left;labelPosition=right;pointerEvents=1;" vertex="1" parent="1">
          <mxGeometry x="500" y="460" width="50" height="100" as="geometry" />
        </mxCell>
        <mxCell id="DGFGNufy49oRKnyAsM9c-52" value="&lt;a href=&quot;https://drive.google.com/file/d/1gha_NlfgyI7bgPZfPpfYkZz8moEeKM86/view?usp=sharing&quot;&gt;RA - Backroom, Equaliser and Penalty&lt;/a&gt;" style="rounded=1;whiteSpace=wrap;html=1;" vertex="1" parent="1">
          <mxGeometry x="547.5" y="420" width="170" height="60" as="geometry" />
        </mxCell>
        <mxCell id="DGFGNufy49oRKnyAsM9c-53" value="&lt;a href=&quot;https://drive.google.com/file/d/1Y5xjl2v7KyL0biV-sUt9JVReb_iDlmp0/view?usp=sharing&quot;&gt;&amp;nbsp;MA - Kick-Off, Pass Volley&amp;nbsp;&lt;br&gt;&lt;/a&gt;&lt;br&gt;&lt;a href=&quot;https://drive.google.com/file/d/1jqBhtALsL8iWC9ZIgrac4wMSQcdWcgAb/view?usp=sharing&quot;&gt;&amp;nbsp;MA - Extra-Time&lt;br&gt;&lt;/a&gt;&lt;br&gt;&lt;a href=&quot;https://drive.google.com/file/d/1TySVbmiHeH0qdHbVMpYbgAKYMC6QVcvo/view?usp=sharing&quot;&gt;&amp;nbsp;MA - Stadium&lt;/a&gt;" style="rounded=1;whiteSpace=wrap;html=1;" vertex="1" parent="1">
          <mxGeometry x="552.5" y="500" width="180" height="120" as="geometry" />
        </mxCell>
        <mxCell id="DGFGNufy49oRKnyAsM9c-54" value="" style="edgeStyle=orthogonalEdgeStyle;rounded=0;orthogonalLoop=1;jettySize=auto;html=1;" edge="1" parent="1" source="DGFGNufy49oRKnyAsM9c-55" target="DGFGNufy49oRKnyAsM9c-7">
          <mxGeometry relative="1" as="geometry">
            <Array as="points">
              <mxPoint x="413" y="910" />
              <mxPoint x="413" y="910" />
            </Array>
          </mxGeometry>
        </mxCell>
        <mxCell id="DGFGNufy49oRKnyAsM9c-55" value="External system&amp;nbsp;" style="whiteSpace=wrap;html=1;aspect=fixed;fillColor=#f8cecc;strokeColor=#b85450;" vertex="1" parent="1">
          <mxGeometry x="387.5" y="993.75" width="82.5" height="82.5" as="geometry" />
        </mxCell>
        <mxCell id="DGFGNufy49oRKnyAsM9c-56" value="" style="edgeStyle=orthogonalEdgeStyle;rounded=0;orthogonalLoop=1;jettySize=auto;html=1;" edge="1" parent="1" source="DGFGNufy49oRKnyAsM9c-57" target="DGFGNufy49oRKnyAsM9c-7">
          <mxGeometry relative="1" as="geometry" />
        </mxCell>
        <mxCell id="DGFGNufy49oRKnyAsM9c-57" value="Amazon API Gateway" style="sketch=0;outlineConnect=0;fontColor=#232F3E;gradientColor=none;strokeColor=#ffffff;fillColor=#232F3E;dashed=0;verticalLabelPosition=middle;verticalAlign=bottom;align=center;html=1;whiteSpace=wrap;fontSize=10;fontStyle=1;spacing=3;shape=mxgraph.aws4.productIcon;prIcon=mxgraph.aws4.api_gateway;" vertex="1" parent="1">
          <mxGeometry x="-50" y="530" width="80" height="110" as="geometry" />
        </mxCell>
        <mxCell id="DGFGNufy49oRKnyAsM9c-58" value="" style="edgeStyle=orthogonalEdgeStyle;rounded=0;orthogonalLoop=1;jettySize=auto;html=1;" edge="1" parent="1" source="DGFGNufy49oRKnyAsM9c-59" target="DGFGNufy49oRKnyAsM9c-7">
          <mxGeometry relative="1" as="geometry">
            <Array as="points">
              <mxPoint x="680" y="880" />
              <mxPoint x="680" y="880" />
            </Array>
          </mxGeometry>
        </mxCell>
        <mxCell id="DGFGNufy49oRKnyAsM9c-59" value="Notification and Chat Module&amp;nbsp;" style="whiteSpace=wrap;html=1;aspect=fixed;fillColor=#dae8fc;strokeColor=#6c8ebf;" vertex="1" parent="1">
          <mxGeometry x="630" y="995" width="80" height="80" as="geometry" />
        </mxCell>
        <mxCell id="DGFGNufy49oRKnyAsM9c-60" value="" style="edgeStyle=orthogonalEdgeStyle;rounded=0;orthogonalLoop=1;jettySize=auto;html=1;" edge="1" parent="1" source="DGFGNufy49oRKnyAsM9c-61" target="DGFGNufy49oRKnyAsM9c-7">
          <mxGeometry relative="1" as="geometry">
            <Array as="points">
              <mxPoint x="535" y="880" />
              <mxPoint x="535" y="880" />
            </Array>
          </mxGeometry>
        </mxCell>
        <mxCell id="DGFGNufy49oRKnyAsM9c-61" value="EPAS admin" style="whiteSpace=wrap;html=1;aspect=fixed;fillColor=#dae8fc;strokeColor=#6c8ebf;" vertex="1" parent="1">
          <mxGeometry x="512.5" y="993.75" width="80" height="80" as="geometry" />
        </mxCell>
        <mxCell id="DGFGNufy49oRKnyAsM9c-62" value="" style="edgeStyle=orthogonalEdgeStyle;rounded=0;orthogonalLoop=1;jettySize=auto;html=1;" edge="1" parent="1" source="DGFGNufy49oRKnyAsM9c-63" target="DGFGNufy49oRKnyAsM9c-7">
          <mxGeometry relative="1" as="geometry">
            <Array as="points">
              <mxPoint x="235" y="979" />
              <mxPoint x="270" y="979" />
            </Array>
          </mxGeometry>
        </mxCell>
        <mxCell id="DGFGNufy49oRKnyAsM9c-63" value="External Services " style="ellipse;whiteSpace=wrap;html=1;fillColor=#fff2cc;strokeColor=#d6b656;" vertex="1" parent="1">
          <mxGeometry x="175" y="1000" width="120" height="90" as="geometry" />
        </mxCell>
        <mxCell id="DGFGNufy49oRKnyAsM9c-64" style="edgeStyle=orthogonalEdgeStyle;rounded=0;orthogonalLoop=1;jettySize=auto;html=1;" edge="1" parent="1" source="DGFGNufy49oRKnyAsM9c-65" target="DGFGNufy49oRKnyAsM9c-7">
          <mxGeometry relative="1" as="geometry">
            <Array as="points">
              <mxPoint x="990" y="750" />
              <mxPoint x="990" y="545" />
            </Array>
          </mxGeometry>
        </mxCell>
        <mxCell id="DGFGNufy49oRKnyAsM9c-65" value="" style="image;aspect=fixed;perimeter=ellipsePerimeter;html=1;align=center;shadow=0;dashed=0;spacingTop=3;image=img/lib/active_directory/databases.svg;" vertex="1" parent="1">
          <mxGeometry x="1000" y="710" width="102.04" height="100" as="geometry" />
        </mxCell>
        <mxCell id="DGFGNufy49oRKnyAsM9c-117" value="" style="edgeStyle=orthogonalEdgeStyle;rounded=0;orthogonalLoop=1;jettySize=auto;html=1;" edge="1" parent="1" source="DGFGNufy49oRKnyAsM9c-95" target="DGFGNufy49oRKnyAsM9c-96">
          <mxGeometry relative="1" as="geometry" />
        </mxCell>
        <mxCell id="DGFGNufy49oRKnyAsM9c-121" style="edgeStyle=orthogonalEdgeStyle;rounded=0;orthogonalLoop=1;jettySize=auto;html=1;entryX=0.5;entryY=0;entryDx=0;entryDy=0;" edge="1" parent="1" source="DGFGNufy49oRKnyAsM9c-95" target="DGFGNufy49oRKnyAsM9c-103">
          <mxGeometry relative="1" as="geometry" />
        </mxCell>
        <mxCell id="DGFGNufy49oRKnyAsM9c-95" value="&lt;font style=&quot;font-size: 8px;&quot;&gt;funding availalble&amp;nbsp;&lt;/font&gt;" style="rounded=0;whiteSpace=wrap;html=1;" vertex="1" parent="1">
          <mxGeometry x="175" y="180" width="75" height="30" as="geometry" />
        </mxCell>
        <mxCell id="DGFGNufy49oRKnyAsM9c-118" value="" style="edgeStyle=orthogonalEdgeStyle;rounded=0;orthogonalLoop=1;jettySize=auto;html=1;" edge="1" parent="1" source="DGFGNufy49oRKnyAsM9c-96" target="DGFGNufy49oRKnyAsM9c-100">
          <mxGeometry relative="1" as="geometry" />
        </mxCell>
        <mxCell id="DGFGNufy49oRKnyAsM9c-96" value="&lt;font style=&quot;font-size: 8px;&quot;&gt;Member or regional Assoccicationn&lt;/font&gt;" style="rounded=0;whiteSpace=wrap;html=1;" vertex="1" parent="1">
          <mxGeometry x="312.5" y="180" width="75" height="30" as="geometry" />
        </mxCell>
        <mxCell id="DGFGNufy49oRKnyAsM9c-152" style="edgeStyle=orthogonalEdgeStyle;rounded=0;orthogonalLoop=1;jettySize=auto;html=1;entryX=0;entryY=0.5;entryDx=0;entryDy=0;" edge="1" parent="1" source="DGFGNufy49oRKnyAsM9c-97" target="DGFGNufy49oRKnyAsM9c-98">
          <mxGeometry relative="1" as="geometry" />
        </mxCell>
        <mxCell id="DGFGNufy49oRKnyAsM9c-97" value="&lt;span style=&quot;font-size: 8px;&quot;&gt;Receive second payment&lt;/span&gt;" style="rounded=0;whiteSpace=wrap;html=1;" vertex="1" parent="1">
          <mxGeometry x="484" y="250" width="75" height="30" as="geometry" />
        </mxCell>
        <mxCell id="DGFGNufy49oRKnyAsM9c-127" value="" style="edgeStyle=orthogonalEdgeStyle;rounded=0;orthogonalLoop=1;jettySize=auto;html=1;" edge="1" parent="1" source="DGFGNufy49oRKnyAsM9c-98" target="DGFGNufy49oRKnyAsM9c-112">
          <mxGeometry relative="1" as="geometry" />
        </mxCell>
        <mxCell id="DGFGNufy49oRKnyAsM9c-98" value="&lt;font style=&quot;font-size: 8px;&quot;&gt;Review Conditions of use&amp;nbsp;&lt;/font&gt;" style="rounded=0;whiteSpace=wrap;html=1;" vertex="1" parent="1">
          <mxGeometry x="582.5" y="250" width="75" height="30" as="geometry" />
        </mxCell>
        <mxCell id="DGFGNufy49oRKnyAsM9c-124" value="" style="edgeStyle=orthogonalEdgeStyle;rounded=0;orthogonalLoop=1;jettySize=auto;html=1;" edge="1" parent="1" source="DGFGNufy49oRKnyAsM9c-99" target="DGFGNufy49oRKnyAsM9c-97">
          <mxGeometry relative="1" as="geometry" />
        </mxCell>
        <mxCell id="DGFGNufy49oRKnyAsM9c-99" value="&lt;font style=&quot;font-size: 8px;&quot;&gt;central Audit&lt;/font&gt;" style="rounded=0;whiteSpace=wrap;html=1;" vertex="1" parent="1">
          <mxGeometry x="385" y="250" width="75" height="30" as="geometry" />
        </mxCell>
        <mxCell id="DGFGNufy49oRKnyAsM9c-119" value="" style="edgeStyle=orthogonalEdgeStyle;rounded=0;orthogonalLoop=1;jettySize=auto;html=1;" edge="1" parent="1" source="DGFGNufy49oRKnyAsM9c-100" target="DGFGNufy49oRKnyAsM9c-101">
          <mxGeometry relative="1" as="geometry" />
        </mxCell>
        <mxCell id="DGFGNufy49oRKnyAsM9c-100" value="&lt;font style=&quot;font-size: 8px;&quot;&gt;Fulfill Condition&lt;/font&gt;" style="rounded=0;whiteSpace=wrap;html=1;" vertex="1" parent="1">
          <mxGeometry x="437.5" y="180" width="75" height="30" as="geometry" />
        </mxCell>
        <mxCell id="DGFGNufy49oRKnyAsM9c-101" value="&lt;font style=&quot;font-size: 8px;&quot;&gt;additional support&amp;nbsp;&lt;/font&gt;" style="rounded=0;whiteSpace=wrap;html=1;" vertex="1" parent="1">
          <mxGeometry x="555" y="180" width="75" height="30" as="geometry" />
        </mxCell>
        <mxCell id="DGFGNufy49oRKnyAsM9c-123" value="" style="edgeStyle=orthogonalEdgeStyle;rounded=0;orthogonalLoop=1;jettySize=auto;html=1;" edge="1" parent="1" source="DGFGNufy49oRKnyAsM9c-102" target="DGFGNufy49oRKnyAsM9c-99">
          <mxGeometry relative="1" as="geometry" />
        </mxCell>
        <mxCell id="DGFGNufy49oRKnyAsM9c-102" value="&lt;font style=&quot;font-size: 8px;&quot;&gt;Receive First payment&amp;nbsp;&lt;/font&gt;" style="rounded=0;whiteSpace=wrap;html=1;" vertex="1" parent="1">
          <mxGeometry x="290" y="250" width="75" height="30" as="geometry" />
        </mxCell>
        <mxCell id="DGFGNufy49oRKnyAsM9c-122" value="" style="edgeStyle=orthogonalEdgeStyle;rounded=0;orthogonalLoop=1;jettySize=auto;html=1;" edge="1" parent="1" source="DGFGNufy49oRKnyAsM9c-103" target="DGFGNufy49oRKnyAsM9c-102">
          <mxGeometry relative="1" as="geometry" />
        </mxCell>
        <mxCell id="DGFGNufy49oRKnyAsM9c-193" style="edgeStyle=orthogonalEdgeStyle;rounded=0;orthogonalLoop=1;jettySize=auto;html=1;entryX=0;entryY=0.75;entryDx=0;entryDy=0;" edge="1" parent="1" source="DGFGNufy49oRKnyAsM9c-103" target="DGFGNufy49oRKnyAsM9c-48">
          <mxGeometry relative="1" as="geometry">
            <Array as="points">
              <mxPoint x="140" y="265" />
              <mxPoint x="140" y="525" />
            </Array>
          </mxGeometry>
        </mxCell>
        <mxCell id="DGFGNufy49oRKnyAsM9c-103" value="&lt;font style=&quot;font-size: 8px;&quot;&gt;apply for funding&lt;/font&gt;" style="rounded=0;whiteSpace=wrap;html=1;" vertex="1" parent="1">
          <mxGeometry x="175" y="250" width="75" height="30" as="geometry" />
        </mxCell>
        <mxCell id="DGFGNufy49oRKnyAsM9c-176" value="" style="edgeStyle=orthogonalEdgeStyle;rounded=0;orthogonalLoop=1;jettySize=auto;html=1;" edge="1" parent="1" source="DGFGNufy49oRKnyAsM9c-107" target="DGFGNufy49oRKnyAsM9c-113">
          <mxGeometry relative="1" as="geometry" />
        </mxCell>
        <mxCell id="DGFGNufy49oRKnyAsM9c-107" value="&lt;font style=&quot;font-size: 8px;&quot;&gt;Submit requirement Document&amp;nbsp;&lt;/font&gt;" style="rounded=0;whiteSpace=wrap;html=1;" vertex="1" parent="1">
          <mxGeometry x="350" y="315" width="75" height="30" as="geometry" />
        </mxCell>
        <mxCell id="DGFGNufy49oRKnyAsM9c-191" value="" style="edgeStyle=orthogonalEdgeStyle;rounded=0;orthogonalLoop=1;jettySize=auto;html=1;" edge="1" parent="1" source="DGFGNufy49oRKnyAsM9c-108" target="DGFGNufy49oRKnyAsM9c-189">
          <mxGeometry relative="1" as="geometry" />
        </mxCell>
        <mxCell id="DGFGNufy49oRKnyAsM9c-108" value="&lt;font style=&quot;font-size: 8px;&quot;&gt;Budget Revisions&lt;/font&gt;" style="rounded=0;whiteSpace=wrap;html=1;" vertex="1" parent="1">
          <mxGeometry x="160" y="385" width="75" height="30" as="geometry" />
        </mxCell>
        <mxCell id="DGFGNufy49oRKnyAsM9c-131" value="" style="edgeStyle=orthogonalEdgeStyle;rounded=0;orthogonalLoop=1;jettySize=auto;html=1;" edge="1" parent="1" source="DGFGNufy49oRKnyAsM9c-109" target="DGFGNufy49oRKnyAsM9c-107">
          <mxGeometry relative="1" as="geometry" />
        </mxCell>
        <mxCell id="DGFGNufy49oRKnyAsM9c-130" value="" style="edgeStyle=orthogonalEdgeStyle;rounded=0;orthogonalLoop=1;jettySize=auto;html=1;" edge="1" parent="1" target="DGFGNufy49oRKnyAsM9c-109">
          <mxGeometry relative="1" as="geometry">
            <mxPoint x="585" y="330" as="sourcePoint" />
          </mxGeometry>
        </mxCell>
        <mxCell id="DGFGNufy49oRKnyAsM9c-129" value="" style="edgeStyle=orthogonalEdgeStyle;rounded=0;orthogonalLoop=1;jettySize=auto;html=1;" edge="1" parent="1" source="DGFGNufy49oRKnyAsM9c-111">
          <mxGeometry relative="1" as="geometry">
            <mxPoint x="660" y="330" as="targetPoint" />
          </mxGeometry>
        </mxCell>
        <mxCell id="DGFGNufy49oRKnyAsM9c-111" value="&lt;font style=&quot;font-size: 8px;&quot;&gt;Check Eligibility&amp;nbsp;&lt;/font&gt;" style="rounded=0;whiteSpace=wrap;html=1;" vertex="1" parent="1">
          <mxGeometry x="702.5" y="315" width="75" height="30" as="geometry" />
        </mxCell>
        <mxCell id="DGFGNufy49oRKnyAsM9c-168" style="edgeStyle=orthogonalEdgeStyle;rounded=0;orthogonalLoop=1;jettySize=auto;html=1;entryX=1;entryY=0.5;entryDx=0;entryDy=0;" edge="1" parent="1" source="DGFGNufy49oRKnyAsM9c-112" target="DGFGNufy49oRKnyAsM9c-111">
          <mxGeometry relative="1" as="geometry" />
        </mxCell>
        <mxCell id="DGFGNufy49oRKnyAsM9c-112" value="&lt;font style=&quot;font-size: 8px;&quot;&gt;Utilise Enhance Fund&lt;/font&gt;" style="rounded=0;whiteSpace=wrap;html=1;" vertex="1" parent="1">
          <mxGeometry x="702.5" y="250" width="75" height="30" as="geometry" />
        </mxCell>
        <mxCell id="DGFGNufy49oRKnyAsM9c-180" value="" style="edgeStyle=orthogonalEdgeStyle;rounded=0;orthogonalLoop=1;jettySize=auto;html=1;" edge="1" parent="1" source="DGFGNufy49oRKnyAsM9c-113" target="DGFGNufy49oRKnyAsM9c-114">
          <mxGeometry relative="1" as="geometry" />
        </mxCell>
        <mxCell id="DGFGNufy49oRKnyAsM9c-113" value="&lt;font style=&quot;font-size: 8px;&quot;&gt;Receive Enhance Fund&lt;/font&gt;" style="rounded=0;whiteSpace=wrap;html=1;" vertex="1" parent="1">
          <mxGeometry x="250" y="315" width="75" height="30" as="geometry" />
        </mxCell>
        <mxCell id="DGFGNufy49oRKnyAsM9c-186" value="" style="edgeStyle=orthogonalEdgeStyle;rounded=0;orthogonalLoop=1;jettySize=auto;html=1;" edge="1" parent="1" source="DGFGNufy49oRKnyAsM9c-114" target="DGFGNufy49oRKnyAsM9c-108">
          <mxGeometry relative="1" as="geometry" />
        </mxCell>
        <mxCell id="DGFGNufy49oRKnyAsM9c-114" value="&lt;font style=&quot;font-size: 8px;&quot;&gt;Bank Account&lt;/font&gt;" style="rounded=0;whiteSpace=wrap;html=1;" vertex="1" parent="1">
          <mxGeometry x="160" y="315" width="75" height="30" as="geometry" />
        </mxCell>
        <mxCell id="DGFGNufy49oRKnyAsM9c-135" value="&lt;font style=&quot;font-size: 8px;&quot;&gt;yes&lt;/font&gt;" style="text;html=1;align=center;verticalAlign=middle;resizable=0;points=[];autosize=1;strokeColor=none;fillColor=none;" vertex="1" parent="1">
          <mxGeometry x="205" y="210" width="40" height="30" as="geometry" />
        </mxCell>
        <mxCell id="DGFGNufy49oRKnyAsM9c-138" value="&lt;font style=&quot;font-size: 8px;&quot;&gt;yes&lt;/font&gt;" style="text;html=1;align=center;verticalAlign=middle;resizable=0;points=[];autosize=1;strokeColor=none;fillColor=none;" vertex="1" parent="1">
          <mxGeometry x="390" y="170" width="40" height="30" as="geometry" />
        </mxCell>
        <mxCell id="DGFGNufy49oRKnyAsM9c-139" value="&lt;font style=&quot;font-size: 8px;&quot;&gt;Budget Approved&lt;/font&gt;" style="text;html=1;align=center;verticalAlign=middle;resizable=0;points=[];autosize=1;strokeColor=none;fillColor=none;" vertex="1" parent="1">
          <mxGeometry x="325" y="355" width="80" height="30" as="geometry" />
        </mxCell>
        <mxCell id="DGFGNufy49oRKnyAsM9c-140" value="&lt;span style=&quot;font-size: 8px;&quot;&gt;yes&lt;br&gt;&lt;/span&gt;" style="text;html=1;align=center;verticalAlign=middle;resizable=0;points=[];autosize=1;strokeColor=none;fillColor=none;" vertex="1" parent="1">
          <mxGeometry x="420" y="325" width="40" height="30" as="geometry" />
        </mxCell>
        <mxCell id="DGFGNufy49oRKnyAsM9c-109" value="&lt;span style=&quot;font-size: 8px;&quot;&gt;Receive&amp;nbsp; Allocated Fund&lt;/span&gt;" style="rounded=0;whiteSpace=wrap;html=1;" vertex="1" parent="1">
          <mxGeometry x="465" y="310" width="82.5" height="40" as="geometry" />
        </mxCell>
        <mxCell id="DGFGNufy49oRKnyAsM9c-148" value="&lt;font style=&quot;font-size: 8px;&quot;&gt;yes&lt;/font&gt;" style="text;html=1;align=center;verticalAlign=middle;resizable=0;points=[];autosize=1;strokeColor=none;fillColor=none;" vertex="1" parent="1">
          <mxGeometry x="512.5" y="170" width="40" height="30" as="geometry" />
        </mxCell>
        <mxCell id="DGFGNufy49oRKnyAsM9c-149" value="&lt;font style=&quot;font-size: 8px;&quot;&gt;yes&lt;/font&gt;" style="text;html=1;align=center;verticalAlign=middle;resizable=0;points=[];autosize=1;strokeColor=none;fillColor=none;" vertex="1" parent="1">
          <mxGeometry x="245" y="230" width="40" height="30" as="geometry" />
        </mxCell>
        <mxCell id="DGFGNufy49oRKnyAsM9c-150" value="&lt;font style=&quot;font-size: 8px;&quot;&gt;yes&lt;/font&gt;" style="text;html=1;align=center;verticalAlign=middle;resizable=0;points=[];autosize=1;strokeColor=none;fillColor=none;" vertex="1" parent="1">
          <mxGeometry x="660" y="260" width="40" height="30" as="geometry" />
        </mxCell>
        <mxCell id="DGFGNufy49oRKnyAsM9c-165" value="&lt;font style=&quot;font-size: 8px;&quot;&gt;Application Approved&lt;/font&gt;" style="text;html=1;align=center;verticalAlign=middle;resizable=0;points=[];autosize=1;strokeColor=none;fillColor=none;" vertex="1" parent="1">
          <mxGeometry x="500" y="285" width="100" height="30" as="geometry" />
        </mxCell>
        <mxCell id="DGFGNufy49oRKnyAsM9c-169" value="&lt;font style=&quot;font-size: 8px;&quot;&gt;yes&lt;/font&gt;" style="text;html=1;align=center;verticalAlign=middle;resizable=0;points=[];autosize=1;strokeColor=none;fillColor=none;" vertex="1" parent="1">
          <mxGeometry x="670" y="320" width="40" height="30" as="geometry" />
        </mxCell>
        <mxCell id="DGFGNufy49oRKnyAsM9c-170" value="&lt;font style=&quot;font-size: 8px;&quot;&gt;yes&lt;/font&gt;" style="text;html=1;align=center;verticalAlign=middle;resizable=0;points=[];autosize=1;strokeColor=none;fillColor=none;" vertex="1" parent="1">
          <mxGeometry x="740" y="270" width="40" height="30" as="geometry" />
        </mxCell>
        <mxCell id="DGFGNufy49oRKnyAsM9c-171" value="&lt;font style=&quot;font-size: 8px;&quot;&gt;Apply to Join Enhance Programme&lt;/font&gt;" style="rounded=0;whiteSpace=wrap;html=1;" vertex="1" parent="1">
          <mxGeometry x="577.5" y="310" width="82.5" height="40" as="geometry" />
        </mxCell>
        <mxCell id="DGFGNufy49oRKnyAsM9c-183" value="&lt;font style=&quot;font-size: 8px;&quot;&gt;yes&lt;/font&gt;" style="text;html=1;align=center;verticalAlign=middle;resizable=0;points=[];autosize=1;strokeColor=none;fillColor=none;" vertex="1" parent="1">
          <mxGeometry x="215" y="290" width="40" height="30" as="geometry" />
        </mxCell>
        <mxCell id="DGFGNufy49oRKnyAsM9c-184" value="&lt;font style=&quot;font-size: 8px;&quot;&gt;yes&lt;/font&gt;" style="text;html=1;align=center;verticalAlign=middle;resizable=0;points=[];autosize=1;strokeColor=none;fillColor=none;" vertex="1" parent="1">
          <mxGeometry x="235" y="375" width="40" height="30" as="geometry" />
        </mxCell>
        <mxCell id="DGFGNufy49oRKnyAsM9c-187" value="&lt;font style=&quot;font-size: 8px;&quot;&gt;yes&lt;/font&gt;" style="text;html=1;align=center;verticalAlign=middle;resizable=0;points=[];autosize=1;strokeColor=none;fillColor=none;" vertex="1" parent="1">
          <mxGeometry x="150" y="345" width="40" height="30" as="geometry" />
        </mxCell>
        <mxCell id="DGFGNufy49oRKnyAsM9c-192" value="" style="edgeStyle=orthogonalEdgeStyle;rounded=0;orthogonalLoop=1;jettySize=auto;html=1;" edge="1" parent="1" source="DGFGNufy49oRKnyAsM9c-189" target="DGFGNufy49oRKnyAsM9c-190">
          <mxGeometry relative="1" as="geometry" />
        </mxCell>
        <mxCell id="DGFGNufy49oRKnyAsM9c-189" value="&lt;font style=&quot;font-size: 8px;&quot;&gt;Submit Revised Budget&lt;/font&gt;" style="rounded=0;whiteSpace=wrap;html=1;" vertex="1" parent="1">
          <mxGeometry x="270" y="385" width="75" height="30" as="geometry" />
        </mxCell>
        <mxCell id="DGFGNufy49oRKnyAsM9c-190" value="&lt;font style=&quot;font-size: 8px;&quot;&gt;Receive&amp;nbsp;Fund&lt;/font&gt;" style="rounded=0;whiteSpace=wrap;html=1;" vertex="1" parent="1">
          <mxGeometry x="395" y="385" width="75" height="30" as="geometry" />
        </mxCell>
      </root>
    </mxGraphModel>
  </diagram>
</mxfile>
